<?xml version="1.0" encoding="utf-8"?>
<!-- Generator: Adobe Illustrator 21.0.2, SVG Export Plug-In . SVG Version: 6.00 Build 0)  -->
<svg version="1.1" id="Camada_1" xmlns="http://www.w3.org/2000/svg" xmlns:xlink="http://www.w3.org/1999/xlink" x="0px" y="0px"
	 viewBox="0 0 1000 1000" style="enable-background:new 0 0 1000 1000;" xml:space="preserve">
<style type="text/css">
	.st0{fill:#FFFEFE;}
</style>
<g>
	<path class="st0" d="M933.1,249.5C977.7,326,1000,409.5,1000,500c0,90.5-22.3,174-66.9,250.5c-44.6,76.5-105.1,137-181.4,181.6
		C675.3,976.7,591.9,999,501.5,999c-90.4,0-173.9-22.3-250.2-66.9c-76.4-44.6-136.9-105.1-181.4-181.6C25.3,674,3,590.5,3,500
		c0-90.5,22.3-174,66.9-250.5c44.6-76.4,105-137,181.4-181.6C327.6,23.3,411.1,1,501.5,1c90.4,0,173.8,22.3,250.2,66.9
		C828.1,112.5,888.6,173.1,933.1,249.5z M842.9,474c0-11.4-3.8-21-11.4-28.6l-57.8-57.8c-7.6-7.6-17.2-11.4-28.6-11.4
		c-11.4,0-21,3.8-28.6,11.4L596.4,507.6V188.7c0-11-4-20.5-12.1-28.6c-8.1-8-17.6-12.1-28.6-12.1h-81.3c-11,0-20.5,4-28.6,12.1
		c-8.1,8.1-12.1,17.6-12.1,28.6v318.9L313.7,387.6c-8.1-8-17.6-12.1-28.6-12.1c-11,0-20.5,4-28.6,12.1l-57.8,57.8
		c-7.6,7.6-11.4,17.2-11.4,28.6c0,11.4,3.8,21,11.4,28.6l230,230l57.8,57.8c7.6,7.6,17.2,11.4,28.6,11.4c11.4,0,21-3.8,28.6-11.4
		l57.8-57.8l230-230C839.1,494.9,842.9,485.4,842.9,474z"/>
</g>
</svg>
